# Blender v2.65 (sub 0) OBJ File: ''
# www.blender.org
o Icosphere_Icosphere.003
v 0.000000 -1.000000 0.000000
v 0.723600 -0.447215 0.525720
v -0.276385 -0.447215 0.850640
v -0.894425 -0.447215 0.000000
v -0.276385 -0.447215 -0.850640
v 0.723600 -0.447215 -0.525720
v 0.276385 0.447215 0.850640
v -0.723600 0.447215 0.525720
v -0.723600 0.447215 -0.525720
v 0.276385 0.447215 -0.850640
v 0.894425 0.447215 0.000000
v 0.000000 1.000000 0.000000
vt 0.988842 0.053629
vt 0.837933 0.382385
vt 0.640104 0.319537
vt 1.025510 0.404535
vt 1.421741 0.303030
vt 1.215000 0.358255
vt 0.921741 0.696970
vt 0.715000 0.641745
vt 0.421741 0.303030
vt 0.525510 0.595465
vt 0.215000 0.358255
vt 0.337933 0.617615
vt 0.025510 0.404535
vt 0.140104 0.680463
vt 1.140104 0.680463
vt 0.488842 0.946371
vn 0.187597 -0.794651 0.577354
vn 0.607065 -0.794652 0.000000
vn -0.491122 -0.794652 0.356829
vn -0.491122 -0.794652 -0.356829
vn 0.187597 -0.794651 -0.577354
vn 0.982246 -0.187597 0.000000
vn 0.303536 -0.187589 0.934171
vn -0.794649 -0.187587 0.577359
vn -0.794649 -0.187587 -0.577359
vn 0.303536 -0.187589 -0.934171
vn 0.794649 0.187587 0.577359
vn -0.303536 0.187589 0.934171
vn -0.982246 0.187597 0.000000
vn -0.303536 0.187589 -0.934171
vn 0.794649 0.187587 -0.577359
vn 0.491122 0.794652 0.356829
vn -0.187597 0.794651 0.577354
vn -0.607065 0.794652 0.000000
vn -0.187597 0.794651 -0.577354
vn 0.491122 0.794652 -0.356829
s off
f 1/1/1 2/2/1 3/3/1
f 2/2/2 1/1/2 6/4/2
f 1/1/3 3/3/3 4/5/3
f 1/1/4 4/5/4 5/6/4
f 1/1/5 5/6/5 6/4/5
f 2/2/6 6/4/6 11/7/6
f 3/3/7 2/2/7 7/8/7
f 4/9/8 3/3/8 8/10/8
f 5/11/9 4/9/9 9/12/9
f 6/13/10 5/11/10 10/14/10
f 2/2/11 11/7/11 7/8/11
f 3/3/12 7/8/12 8/10/12
f 4/9/13 8/10/13 9/12/13
f 5/11/14 9/12/14 10/14/14
f 6/4/15 10/15/15 11/7/15
f 7/8/16 11/7/16 12/16/16
f 8/10/17 7/8/17 12/16/17
f 9/12/18 8/10/18 12/16/18
f 10/14/19 9/12/19 12/16/19
f 11/7/20 10/15/20 12/16/20
